<svg data-name="Layer 1" viewBox="0 0 100 100" xmlns="http://www.w3.org/2000/svg"><path d="M93.14 70.13 83 59.94a6.33 6.33 0 0 0-8.95 0l-10.6 10.55-33.94-33.94L40.07 26a6.33 6.33 0 0 0 0-8.94L29.87 6.85a6.33 6.33 0 0 0-8.95 0L6.85 20.92A6.32 6.32 0 0 0 5 25.39v1.75c.17 5.15 2.49 11.73 6.75 19.08a117.51 117.51 0 0 0 18.5 23.53 117.65 117.65 0 0 0 23.43 18.44C61 92.45 67.58 94.78 72.74 95h1.87a6.31 6.31 0 0 0 4.45-1.83l14.09-14.09a6.33 6.33 0 0 0 0-8.93Zm-2 7L77.08 91.17a3.54 3.54 0 0 1-1.28.81 3.5 3.5 0 0 1-1.2.21h-1.76C68.15 92 62 89.77 55.1 85.76a114.81 114.81 0 0 1-22.85-18 114.67 114.67 0 0 1-18-22.94c-4-6.94-6.22-13.08-6.37-17.77v-1.66A3.51 3.51 0 0 1 8 24.2a3.57 3.57 0 0 1 .82-1.29L22.9 8.84a3.52 3.52 0 0 1 5 0L38.07 19a3.52 3.52 0 0 1 0 5L27.52 34.56l-2 2 2 2 33.94 33.92 2 2 2-2L76 61.93a3.51 3.51 0 0 1 5 0l10.16 10.19a3.52 3.52 0 0 1 0 5Z" fill="#07004d" class="fill-000000"></path></svg>