<svg width="18" height="22" viewBox="0 0 18 22" fill="none" xmlns="http://www.w3.org/2000/svg">
<path fill-rule="evenodd" clip-rule="evenodd" d="M4.49984 5C4.49984 2.51472 6.51456 0.5 8.99984 0.5C11.4851 0.5 13.4998 2.51472 13.4998 5C13.4998 7.48528 11.4851 9.5 8.99984 9.5C6.51456 9.5 4.49984 7.48528 4.49984 5Z" fill="#07004D"/>
<path fill-rule="evenodd" clip-rule="evenodd" d="M0.751088 19.1053C0.828429 14.6156 4.49183 11 8.99984 11C13.508 11 17.1714 14.6157 17.2486 19.1056C17.2537 19.4034 17.0822 19.676 16.8115 19.8002C14.4326 20.8918 11.7864 21.5 9.00016 21.5C6.2137 21.5 3.56728 20.8917 1.18816 19.7999C0.917494 19.6757 0.745959 19.4031 0.751088 19.1053Z" fill="#07004D"/>
</svg>
