<svg data-name="Layer 18" viewBox="0 0 32 32" xmlns="http://www.w3.org/2000/svg"><path d="M29 14a1 1 0 0 0-1 1h-1.051a10.947 10.947 0 0 0-2.5-6.034l.745-.745a1 1 0 0 0 1.414-1.414l-1.416-1.413a1 1 0 0 0-1.414 1.414l-.745.745A10.947 10.947 0 0 0 17 5.051V4a1 1 0 0 0 0-2h-2a1 1 0 0 0 0 2v1.051a10.947 10.947 0 0 0-6.034 2.5l-.744-.743a1 1 0 0 0-1.414-1.414L5.394 6.808a1 1 0 1 0 1.414 1.414l.744.744A10.947 10.947 0 0 0 5.051 15H4a1 1 0 0 0-2 0v2a1 1 0 0 0 2 0h1.051a10.947 10.947 0 0 0 2.5 6.034l-.745.745a1 1 0 0 0-1.414 1.414l1.414 1.414a1 1 0 0 0 1.414-1.414l.745-.745A10.947 10.947 0 0 0 15 26.949V28a1 1 0 0 0 0 2h2a1 1 0 0 0 0-2v-1.051a10.947 10.947 0 0 0 6.034-2.5l.745.745a1 1 0 1 0 1.414 1.414l1.414-1.414a1 1 0 0 0-1.414-1.414l-.745-.745A10.947 10.947 0 0 0 26.949 17H28a1 1 0 0 0 2 0v-2a1 1 0 0 0-1-1ZM16 25a9 9 0 1 1 9-9 9.01 9.01 0 0 1-9 9Z" fill="" class="fill-000000"></path><path d="M19.5 14a3.5 3.5 0 1 0 3.5 3.5 3.5 3.5 0 0 0-3.5-3.5Zm0 5a1.5 1.5 0 1 1 1.5-1.5 1.5 1.5 0 0 1-1.5 1.5ZM17 12a3 3 0 1 0-3 3 3 3 0 0 0 3-3Zm-3 1a1 1 0 1 1 1-1 1 1 0 0 1-1 1ZM12.5 17a2.5 2.5 0 1 0 2.5 2.5 2.5 2.5 0 0 0-2.5-2.5Zm0 3a.5.5 0 1 1 .5-.5.5.5 0 0 1-.5.5Z" fill="" class=""></path></svg>